<svg class="icon" style="width: 1.3em;height: 12em;vertical-align: middle;fill: currentColor;overflow: hidden;" viewBox="0 0 1024 1024" version="1.1" xmlns="http://www.w3.org/2000/svg"><path d="M720.298667 768c-12.714667 0-23.850667-4.778667-33.408-14.293333L270.293333 337.066667c-19.072-19.114667-19.072-49.322667 0-66.816 19.114667-19.072 49.322667-19.072 66.816 0l416.597334 415.018666c19.072 19.072 19.072 49.28 0 66.773334-9.557333 11.136-22.272 15.914667-33.408 15.914666z" fill="#666" /><path d="M303.701333 768c-12.714667 0-23.850667-4.778667-33.408-14.293333-19.072-19.114667-19.072-49.322667 0-66.816l415.018667-416.597334c19.072-19.072 49.28-19.072 66.773333 0 19.114667 19.114667 19.114667 49.322667 0 66.816l-414.976 416.597334a45.781333 45.781333 0 0 1-33.408 14.293333z" fill="#666" /></svg>