<svg class="icon" style="width: 1em;height: 1em;vertical-align: middle;fill: currentColor;overflow: hidden;" viewBox="0 0 1024 1024" version="1.1" xmlns="http://www.w3.org/2000/svg"><path d="M132 896A4 4 0 0 1 128 892V132C128 129.792 129.792 128 132 128h760c2.208 0 4 1.792 4 4v760a4 4 0 0 1-4 4H132zM112 896zM672 112H128h768-224z" fill="#FFFFFF" /><path d="M896 96H128a32 32 0 0 0-32 32v768a32 32 0 0 0 32 32h768a32 32 0 0 0 32-32V128a32 32 0 0 0-32-32z m-192 800V128h192v768h-192zM128 896V128h544v768H128z" fill="#666" /></svg>