<svg class="icon" style="width: 1em;height: 1em;vertical-align: middle;fill: currentColor;overflow: hidden;" viewBox="0 0 1024 1024" version="1.1" xmlns="http://www.w3.org/2000/svg"><path d="M332.288 709.12a51.456 51.456 0 0 1 51.2-51.2h256a51.456 51.456 0 0 1 51.2 51.2 51.456 51.456 0 0 1-51.2 51.2h-256a51.2 51.2 0 0 1-51.2-51.2z" fill="#FCC53A" /><path d="M510.72 210.432l281.6 150.016v506.112h-560.64V360.448l279.04-150.016m0-109.312a51.2 51.2 0 0 0-24.32 6.144L156.16 284.672a51.2 51.2 0 0 0-26.88 45.056v588.032a51.2 51.2 0 0 0 51.2 51.2h663.04a51.2 51.2 0 0 0 51.2-51.2V329.984a51.2 51.2 0 0 0-27.136-45.056L534.784 107.52a51.2 51.2 0 0 0-24.064-6.144z" fill="#4C4C4C" /></svg>